<svg viewBox="0 0 72 72" xmlns="http://www.w3.org/2000/svg">
  <g id="color">
    <path fill="#b1cc33" d="M20 6h32a3 3 0 013 3v54a3 3 0 01-3 3H20a3 3 0 01-3-3V9a3 3 0 013-3z"/>
    <path fill="#d0cfce" d="M19 12h34v16H19zM19 30h34v16H19zM19 48h34v16H19z"/>
    <rect x="31" y="19" width="10" height="3" rx="1.5" fill="#9b9b9a"/>
    <rect x="31" y="37" width="10" height="3" rx="1.5" fill="#9b9b9a"/>
    <rect x="31" y="55" width="10" height="3" rx="1.5" fill="#9b9b9a"/>
  </g>
  <g id="line" fill="none" stroke="#000" stroke-width="2" stroke-linecap="round" stroke-linejoin="round">
    <path d="M20 6h32a3 3 0 013 3v54a3 3 0 01-3 3H20a3 3 0 01-3-3V9a3 3 0 013-3z"/>
    <path d="M17 28h38M17 46h38"/>
    <rect x="31" y="19" width="10" height="3" rx="1.5"/>
    <rect x="31" y="37" width="10" height="3" rx="1.5"/>
    <rect x="31" y="55" width="10" height="3" rx="1.5"/>
  </g>
</svg>
